<svg width="62" height="62" viewBox="0 0 62 62" fill="none" xmlns="http://www.w3.org/2000/svg">
<path d="M31 62C24.8688 62 18.8753 60.1819 13.7773 56.7756C8.67941 53.3692 4.70606 48.5277 2.35975 42.8632C0.0134321 37.1987 -0.600471 30.9656 0.59567 24.9522C1.79181 18.9388 4.74427 13.4151 9.0797 9.0797C13.4151 4.74427 18.9388 1.79181 24.9522 0.59567C30.9656 -0.600471 37.1987 0.0134321 42.8632 2.35975C48.5277 4.70606 53.3692 8.67941 56.7756 13.7773C60.1819 18.8753 62 24.8688 62 31C62 39.2217 58.7339 47.1067 52.9203 52.9203C47.1067 58.7339 39.2217 62 31 62ZM31 4.13335C25.6863 4.13335 20.4919 5.70905 16.0737 8.66119C11.6555 11.6133 8.21192 15.8093 6.17845 20.7186C4.14497 25.6278 3.61293 31.0298 4.64958 36.2414C5.68624 41.4531 8.24504 46.2402 12.0024 49.9976C15.7598 53.755 20.547 56.3138 25.7586 57.3504C30.9702 58.3871 36.3722 57.855 41.2814 55.8216C46.1907 53.7881 50.3867 50.3445 53.3388 45.9263C56.291 41.5081 57.8667 36.3137 57.8667 31C57.8667 23.8745 55.0361 17.0409 49.9976 12.0024C44.9591 6.96393 38.1255 4.13335 31 4.13335Z" fill="#101820"/>
<path d="M13.5565 48.6152L48.5858 13.5858" stroke="black" stroke-width="4"/>
<line x1="13.4142" y1="13.5858" x2="48.4436" y2="48.6152" stroke="black" stroke-width="4"/>
</svg>
