<svg width="62" height="62" viewBox="0 0 62 62" fill="none" xmlns="http://www.w3.org/2000/svg">
<path d="M31 62C24.8688 62 18.8753 60.1819 13.7773 56.7756C8.67941 53.3692 4.70606 48.5277 2.35975 42.8632C0.0134321 37.1987 -0.600471 30.9656 0.59567 24.9522C1.79181 18.9388 4.74427 13.4151 9.0797 9.0797C13.4151 4.74427 18.9388 1.79181 24.9522 0.59567C30.9656 -0.600471 37.1987 0.0134321 42.8632 2.35975C48.5277 4.70606 53.3692 8.67941 56.7756 13.7773C60.1819 18.8753 62 24.8688 62 31C62 39.2217 58.7339 47.1067 52.9203 52.9203C47.1067 58.7339 39.2217 62 31 62ZM31 4.13335C25.6863 4.13335 20.4919 5.70905 16.0737 8.66119C11.6555 11.6133 8.21192 15.8093 6.17845 20.7186C4.14497 25.6278 3.61293 31.0298 4.64958 36.2414C5.68624 41.4531 8.24504 46.2402 12.0024 49.9976C15.7598 53.755 20.547 56.3138 25.7586 57.3504C30.9702 58.3871 36.3722 57.855 41.2814 55.8216C46.1907 53.7881 50.3867 50.3445 53.3388 45.9263C56.291 41.5081 57.8667 36.3137 57.8667 31C57.8667 23.8745 55.0361 17.0409 49.9976 12.0024C44.9591 6.96393 38.1255 4.13335 31 4.13335Z" fill="#101820"/>
<path d="M26.1847 43.4C25.9013 43.3991 25.6212 43.3399 25.3617 43.2261C25.1021 43.1124 24.8687 42.9464 24.6761 42.7387L15.0247 32.4053C14.695 31.9987 14.5318 31.482 14.5683 30.9596C14.6048 30.4373 14.8382 29.9483 15.2213 29.5915C15.6044 29.2346 16.1087 29.0364 16.6323 29.037C17.1559 29.0376 17.6598 29.2369 18.0421 29.5947L26.1847 38.2953L43.9581 19.2613C44.1365 19.0413 44.3583 18.8602 44.6097 18.7295C44.861 18.5988 45.1366 18.5211 45.4193 18.5014C45.7019 18.4816 45.9856 18.5202 46.2527 18.6147C46.5198 18.7092 46.7646 18.8577 46.9719 19.0508C47.1793 19.2439 47.3447 19.4776 47.4579 19.7373C47.571 19.9971 47.6296 20.2773 47.63 20.5606C47.6303 20.844 47.5723 21.1244 47.4597 21.3844C47.3471 21.6443 47.1823 21.8784 46.9754 22.072L27.6934 42.7387C27.5007 42.9464 27.2673 43.1124 27.0078 43.2261C26.7483 43.3399 26.4681 43.3991 26.1847 43.4Z" fill="#101820"/>
</svg>
