<svg width="58" height="57" viewBox="0 0 58 57" fill="none" xmlns="http://www.w3.org/2000/svg">
<path d="M36.9242 19.3432L32.0909 4.46783C31.118 1.47358 26.882 1.47355 25.9091 4.46782L21.0758 19.3432C20.9754 19.6522 20.6874 19.8615 20.3625 19.8615H4.72156C1.57322 19.8615 0.264172 23.8902 2.81125 25.7408L15.465 34.9343C15.7279 35.1252 15.8379 35.4638 15.7375 35.7728L10.9042 50.6482C9.93128 53.6424 13.3583 56.1323 15.9054 54.2818L28.5592 45.0883C28.822 44.8973 29.178 44.8973 29.4408 45.0883L42.0946 54.2818C44.6417 56.1323 48.0687 53.6424 47.0958 50.6482L42.2625 35.7728C42.1621 35.4638 42.2721 35.1252 42.535 34.9343L55.1887 25.7408C57.7358 23.8902 56.4268 19.8615 53.2784 19.8615H37.6375C37.3126 19.8615 37.0246 19.6522 36.9242 19.3432Z" fill="white" stroke="#d4b07f" stroke-width="2.5"/>
</svg>
